<svg id="stuff" xmlns="http://www.w3.org/2000/svg" xmlns:xlink="http://www.w3.org/1999/xlink" viewBox="0 0 1920 1088"><defs><style>.cls-1{fill:none;}.cls-2{fill:url(#Naamloos_verloop);}.cls-3{fill:#6b253e;}.cls-4{fill:#891f4a;}.cls-5{fill:#c94b7e;}.cls-6{fill:#0e1335;}.cls-7{fill:#af3863;}.cls-8{fill:#5bfdb2;}.cls-9{fill:#32a56b;}.cls-10{fill:#27724b;}.cls-11{fill:#3e7056;}.cls-12{fill:#e22e5d;}.cls-13{fill:#b7325b;}.cls-14{fill:#408e67;}.cls-15{fill:#a8385b;}.cls-16{fill:#3a845f;}.cls-17{fill:#48a376;}.cls-18{fill:#45936c;}.cls-19{fill:#3c7056;}.cls-20{fill:#449369;}.cls-21{opacity:0.43;isolation:isolate;fill:url(#Naamloos_verloop_2);}.cls-22{fill:#ed2f6a;}.cls-23{fill:#ad3158;}.cls-24{fill:#72243c;}.cls-25{clip-path:url(#clip-path);}.cls-26{fill:#0a0b3b;}.cls-27{fill:#13134c;}</style><linearGradient id="Naamloos_verloop" x1="960" y1="3026" x2="960" y2="1946" gradientTransform="matrix(1, 0, 0, -1, 0, 3026)" gradientUnits="userSpaceOnUse"><stop offset="0" stop-color="#070923"/><stop offset="0.38" stop-color="#080b24"/><stop offset="0.51" stop-color="#0b1228"/><stop offset="0.61" stop-color="#101d2f"/><stop offset="0.69" stop-color="#172e39"/><stop offset="0.76" stop-color="#204445"/><stop offset="0.82" stop-color="#2b6055"/><stop offset="0.87" stop-color="#398068"/><stop offset="0.92" stop-color="#49a67e"/><stop offset="0.96" stop-color="#5acf96"/><stop offset="1" stop-color="#6bf7ad"/></linearGradient><linearGradient id="Naamloos_verloop_2" x1="1580.73" y1="1597.75" x2="1580.21" y2="1415.87" gradientTransform="matrix(1.59, 0, 0, -8.25, -1466.54, 12861.2)" gradientUnits="userSpaceOnUse"><stop offset="0" stop-color="#070923" stop-opacity="0"/><stop offset="0.32" stop-color="#080c25" stop-opacity="0.01"/><stop offset="0.47" stop-color="#0d162b" stop-opacity="0.04"/><stop offset="0.59" stop-color="#142835" stop-opacity="0.09"/><stop offset="0.69" stop-color="#1f4144" stop-opacity="0.17"/><stop offset="0.78" stop-color="#2d6257" stop-opacity="0.26"/><stop offset="0.85" stop-color="#3e8b6e" stop-opacity="0.38"/><stop offset="0.93" stop-color="#52bb8a" stop-opacity="0.52"/><stop offset="0.99" stop-color="#69f1aa" stop-opacity="0.68"/><stop offset="1" stop-color="#6bf7ad" stop-opacity="0.7"/></linearGradient><clipPath id="clip-path"><rect class="cls-1" x="150.02" y="71.46" width="1721.54" height="2089.55" transform="translate(-380.64 1692.07) rotate(-70.32)"/></clipPath></defs><title>bg-skyline</title><g id="bg"><rect class="cls-2" width="1920" height="1080"/></g><polygon class="cls-3" points="85.04 909.32 55.47 909.32 62.51 853.32 76.59 853.32 85.04 909.32"/><polygon class="cls-4" points="62.61 909.32 33.04 909.32 40.08 853.32 54.16 853.32 62.61 909.32"/><polygon class="cls-3" points="206.04 909.32 176.47 909.32 183.51 853.32 197.59 853.32 206.04 909.32"/><polygon class="cls-4" points="183.61 909.32 154.04 909.32 161.08 853.32 175.16 853.32 183.61 909.32"/><rect class="cls-5" x="-1.96" y="849.32" width="369" height="7"/><polygon class="cls-6" points="939.04 663.32 939.04 900.32 855.04 900.32 855.04 641.32 905.04 641.32 905.04 663.32 939.04 663.32"/><rect class="cls-6" x="329.04" y="823.32" width="76" height="76"/><rect class="cls-6" x="387.04" y="770.32" width="76" height="129"/><rect class="cls-6" x="444.04" y="790.32" width="76" height="109"/><rect class="cls-6" x="520.04" y="844.32" width="76" height="55"/><rect class="cls-6" x="574.04" y="790.32" width="76" height="109"/><polygon class="cls-6" points="715.04 791.32 715.04 899.32 639.04 899.32 639.04 771.32 683.04 771.32 683.04 791.32 715.04 791.32"/><rect class="cls-6" x="975.04" y="718.32" width="36" height="181"/><polygon class="cls-6" points="709.04 739.16 709.04 900.32 770.04 900.32 770.04 709.32 734.72 709.32 734.72 739.16 709.04 739.16"/><rect class="cls-6" x="770.04" y="807.32" width="52" height="92"/><rect class="cls-6" x="793.04" y="758.32" width="52" height="141"/><rect class="cls-7" x="165.04" y="736.32" width="8" height="113"/><rect class="cls-6" x="845.04" y="825.32" width="27" height="74"/><rect class="cls-6" x="939.04" y="785.32" width="36" height="114"/><rect class="cls-6" x="1011.04" y="790.32" width="33" height="109"/><rect class="cls-6" x="1044.04" y="758.32" width="36" height="141"/><rect class="cls-6" x="1080.04" y="671.32" width="51" height="229"/><rect class="cls-6" x="1131.04" y="546.32" width="46" height="353"/><rect class="cls-6" x="1177.04" y="642.32" width="50" height="257"/><rect class="cls-6" x="1227.04" y="775.32" width="46" height="124"/><rect class="cls-6" x="1266.04" y="721.32" width="59" height="178"/><rect class="cls-6" x="1325.04" y="580.32" width="49" height="319"/><rect class="cls-6" x="1374.04" y="673.32" width="41" height="226"/><rect class="cls-6" x="1415.04" y="642.32" width="41" height="257"/><rect class="cls-6" x="1636.04" y="753.32" width="74" height="146"/><rect class="cls-6" x="1730.04" y="508.32" width="85" height="391"/><rect class="cls-6" x="1689.04" y="642.32" width="41" height="257"/><rect class="cls-6" x="1456.04" y="757.32" width="33" height="143"/><rect class="cls-6" x="1489.04" y="703.32" width="45" height="196"/><rect class="cls-6" x="1534.04" y="775.32" width="49" height="124"/><polygon class="cls-6" points="1657.04 899.32 1567.04 899.32 1612.04 164.32 1657.04 899.32"/><rect class="cls-6" x="1815.04" y="766.32" width="40" height="133"/><rect class="cls-6" x="1843.04" y="587.32" width="46" height="312"/><rect class="cls-6" x="1889.04" y="703.32" width="29" height="196"/><rect class="cls-3" x="187.04" y="736.32" width="8" height="113"/><rect class="cls-7" x="168.04" y="743.47" width="23" height="11.44"/><rect class="cls-7" x="43.04" y="736.32" width="8" height="113"/><rect class="cls-3" x="65.04" y="736.32" width="8" height="113"/><rect class="cls-7 start" x="46.04" y="743.47" width="23" height="11.44"/><rect class="cls-8" x="395.04" y="776.32" width="18" height="8"/><rect class="cls-9" x="715.04" y="766.32" width="18" height="8"/><rect class="cls-9" x="863.04" y="660.32" width="18" height="8"/><rect class="cls-10" x="913.04" y="671.32" width="18" height="8"/><rect class="cls-11" x="339.04" y="831.32" width="22" height="8"/><rect class="cls-11" x="585.04" y="798.32" width="22" height="8"/><rect class="cls-9" x="489.04" y="798.32" width="22" height="8"/><rect class="cls-8" x="861.04" y="738.32" width="22" height="8"/><rect class="cls-8" x="715.04" y="742.32" width="18" height="8"/><rect class="cls-8" x="1193.04" y="646.32" width="25" height="8"/><rect class="cls-8" x="1099.04" y="717.32" width="25" height="8"/><rect class="cls-8" x="1274.04" y="734.32" width="25" height="8"/><rect class="cls-12" x="1434.04" y="645.32" width="18" height="8"/><rect class="cls-13" x="1376.04" y="677.32" width="18" height="8"/><rect class="cls-12" x="1512.04" y="706.32" width="18" height="8"/><rect class="cls-14" x="1554.04" y="841.32" width="18" height="8"/><rect class="cls-15" x="1695.04" y="650.32" width="18" height="8"/><rect class="cls-15" x="1496.04" y="787.32" width="18" height="8"/><rect class="cls-12" x="1784.04" y="519.32" width="18" height="8"/><rect class="cls-8" x="1784.04" y="549.32" width="18" height="8"/><rect class="cls-12" x="1846.04" y="594.32" width="18" height="8"/><rect class="cls-8" x="1866.04" y="628.32" width="18" height="8"/><rect class="cls-8" x="1784.04" y="677.32" width="18" height="8"/><rect class="cls-8" x="1895.04" y="713.32" width="18" height="8"/><rect class="cls-14" x="1767.04" y="798.32" width="18" height="8"/><rect class="cls-16" x="1341.04" y="755.32" width="18" height="8"/><rect class="cls-14" x="1417.04" y="771.32" width="18" height="8"/><rect class="cls-17" x="1244.04" y="783.32" width="18" height="8"/><rect class="cls-18" x="1376.04" y="689.32" width="18" height="8"/><rect class="cls-12" x="1331.04" y="590.32" width="18" height="8"/><rect class="cls-18" x="1350.04" y="612.32" width="18" height="8"/><rect class="cls-19" x="1180.04" y="794.32" width="25" height="8"/><rect class="cls-8" x="995.04" y="721.32" width="13" height="8"/><rect class="cls-20" x="979.04" y="767.32" width="13" height="8"/><rect class="cls-8" x="1137.04" y="553.32" width="13" height="8"/><rect class="cls-11" x="646.04" y="835.32" width="22" height="8"/><rect class="cls-11" x="421.04" y="868.32" width="22" height="8"/><rect class="cls-21 end" x="-287.81" y="-297.38" width="2668.42" height="1460.96" transform="translate(-80.96 325.45) rotate(-17.03)"/><path class="cls-22" d="M1580,323.32h64a2,2,0,0,1,2,2h0a2,2,0,0,1-2,2h-64a2,2,0,0,1-2-2h0A2,2,0,0,1,1580,323.32Z"/><path class="cls-23" d="M1580,423.32h64a2,2,0,0,1,2,2h0a2,2,0,0,1-2,2h-64a2,2,0,0,1-2-2h0A2,2,0,0,1,1580,423.32Z"/><path class="cls-24" d="M1580,523.32h64a2,2,0,0,1,2,2h0a2,2,0,0,1-2,2h-64a2,2,0,0,1-2-2h0A2,2,0,0,1,1580,523.32Z"/><g class="cls-25"><rect class="cls-26" x="-11.96" y="909.32" width="1934" height="206.91"/></g><path class="cls-27" d="M1921,909.32H246a10,10,0,0,1,10-10H1921Z"/></svg>